{
	"asset":{
		"generator":"Khronos glTF Blender I/O v3.6.27",
		"version":"2.0"
	},
	"scene":0,
	"scenes":[
		{
			"name":"Scene",
			"nodes":[
				0
			]
		}
	],
	"nodes":[
		{
			"mesh":0,
			"name":"lightning_bolt.001",
			"rotation":[
				-0.70710688829422,
				0,
				0,
				0.7071066498756409
			],
			"translation":[
				0.23310211300849915,
				0.22629185020923615,
				-0.04096509516239166
			]
		}
	],
	"materials":[
		{
			"alphaMode":"BLEND",
			"name":"Material.001",
			"pbrMetallicRoughness":{
				"baseColorFactor":[
					0.047401051968336105,
					0.047401051968336105,
					0.047401051968336105,
					0.8699690699577332
				],
				"metallicFactor":0
			}
		}
	],
	"meshes":[
		{
			"name":"lightning_bolt.001",
			"primitives":[
				{
					"attributes":{
						"POSITION":0,
						"NORMAL":1,
						"TEXCOORD_0":2
					},
					"indices":3,
					"material":0
				}
			]
		}
	],
	"accessors":[
		{
			"bufferView":0,
			"componentType":5126,
			"count":466,
			"max":[
				0.8828319311141968,
				0.5621770024299622,
				0.6350218057632446
			],
			"min":[
				-1.39218008518219,
				-0.6929920315742493,
				-0.21501314640045166
			],
			"type":"VEC3"
		},
		{
			"bufferView":1,
			"componentType":5126,
			"count":466,
			"type":"VEC3"
		},
		{
			"bufferView":2,
			"componentType":5126,
			"count":466,
			"type":"VEC2"
		},
		{
			"bufferView":3,
			"componentType":5123,
			"count":558,
			"type":"SCALAR"
		}
	],
	"bufferViews":[
		{
			"buffer":0,
			"byteLength":5592,
			"byteOffset":0,
			"target":34962
		},
		{
			"buffer":0,
			"byteLength":5592,
			"byteOffset":5592,
			"target":34962
		},
		{
			"buffer":0,
			"byteLength":3728,
			"byteOffset":11184,
			"target":34962
		},
		{
			"buffer":0,
			"byteLength":1116,
			"byteOffset":14912,
			"target":34963
		}
	],
	"buffers":[
		{
			"byteLength":16028,
			"uri":"data:application/octet-stream;base64,"
		}
	]
}
