{
    "accessors" : [
        {
            "bufferView" : 0,
            "componentType" : 5121,
            "count" : 168,
            "max" : [
                119
            ],
            "min" : [
                0
            ],
            "type" : "SCALAR"
        },
        {
            "bufferView" : 1,
            "componentType" : 5126,
            "count" : 120,
            "max" : [
                0.399632066488266,
                0.07500000298023224,
                0.399632066488266
            ],
            "min" : [
                -0.399632066488266,
                0.0,
                -0.399632066488266
            ],
            "type" : "VEC3"
        },
        {
            "bufferView" : 2,
            "componentType" : 5126,
            "count" : 120,
            "max" : [
                0.7678391337394714,
                0.9999999403953552,
                0.7678391337394714
            ],
            "min" : [
                -0.7678391337394714,
                0.5561184883117676,
                -0.7678391337394714
            ],
            "type" : "VEC3"
        },
        {
            "bufferView" : 3,
            "componentType" : 5126,
            "count" : 120,
            "max" : [
                0.940690279006958,
                0.8309895992279053,
                0.034436047077178955,
                1.0
            ],
            "min" : [
                0.5073928833007812,
                -0.8309895396232605,
                -0.6788243651390076,
                1.0
            ],
            "type" : "VEC4"
        },
        {
            "bufferView" : 4,
            "componentType" : 5126,
            "count" : 120,
            "max" : [
                0.9998999834060669,
                0.9999000199968577
            ],
            "min" : [
                9.998000314226374e-05,
                0.00010007619857788086
            ],
            "type" : "VEC2"
        }
    ],
    "asset" : {
        "generator" : "Khronos Blender glTF 2.0 exporter",
        "version" : "2.0"
    },
    "bufferViews" : [
        {
            "buffer" : 0,
            "byteLength" : 168,
            "byteOffset" : 0,
            "target" : 34963
        },
        {
            "buffer" : 0,
            "byteLength" : 1440,
            "byteOffset" : 168,
            "target" : 34962
        },
        {
            "buffer" : 0,
            "byteLength" : 1440,
            "byteOffset" : 1608,
            "target" : 34962
        },
        {
            "buffer" : 0,
            "byteLength" : 1920,
            "byteOffset" : 3048,
            "target" : 34962
        },
        {
            "buffer" : 0,
            "byteLength" : 960,
            "byteOffset" : 4968,
            "target" : 34962
        }
    ],
    "buffers" : [
        {
            "byteLength" : 5928,
            "uri" : "BlockDogBowl.bin"
        }
    ],
    "images" : [
        {
            "mimeType" : "image/png",
            "name" : "BowlTexture",
            "uri" : "data:image/png;base64,"
        }
    ],
    "materials" : [
        {
            "name" : "DogBowl",
            "pbrMetallicRoughness" : {
                "baseColorFactor" : [
                    0.800000011920929,
                    0.800000011920929,
                    0.800000011920929,
                    1.0
                ],
                "baseColorTexture" : {
                    "index" : 0
                },
                "metallicFactor" : 0.0
            }
        }
    ],
    "meshes" : [
        {
            "name" : "DogBowl",
            "primitives" : [
                {
                    "attributes" : {
                        "NORMAL" : 2,
                        "POSITION" : 1,
                        "TANGENT" : 3,
                        "TEXCOORD_0" : 4
                    },
                    "indices" : 0,
                    "material" : 0
                }
            ]
        }
    ],
    "nodes" : [
        {
            "mesh" : 0,
            "name" : "DogBowl"
        }
    ],
    "samplers" : [
        {}
    ],
    "scene" : 0,
    "scenes" : [
        {
            "name" : "Scene",
            "nodes" : [
                0
            ]
        }
    ],
    "textures" : [
        {
            "sampler" : 0,
            "source" : 0
        }
    ]
}
