{
	"asset":{
		"generator":"Khronos glTF Blender I/O v3.6.27",
		"version":"2.0"
	},
	"scene":0,
	"scenes":[
		{
			"name":"Scene",
			"nodes":[
				0
			]
		}
	],
	"nodes":[
		{
			"mesh":0,
			"name":"node_MeshObject1398180352-PolyPaper21",
			"translation":[
				0.082535021007061,
				0.43556687235832214,
				-0.05141651630401611
			]
		}
	],
	"materials":[
		{
			"name":"BlocksPaper",
			"pbrMetallicRoughness":{
				"metallicFactor":0,
				"roughnessFactor":0.6000000238418579
			}
		}
	],
	"meshes":[
		{
			"name":"mesh_m0-PolyPaper21_-39648",
			"primitives":[
				{
					"attributes":{
						"COLOR_0":0,
						"POSITION":1,
						"NORMAL":2
					},
					"indices":3,
					"material":0
				}
			]
		}
	],
	"accessors":[
		{
			"bufferView":0,
			"componentType":5123,
			"count":8300,
			"normalized":true,
			"type":"VEC4"
		},
		{
			"bufferView":1,
			"componentType":5126,
			"count":8300,
			"max":[
				1.261922001838684,
				0.676841139793396,
				1.3624253273010254
			],
			"min":[
				-1.4896647930145264,
				-0.5601444244384766,
				-1.6059050559997559
			],
			"type":"VEC3"
		},
		{
			"bufferView":2,
			"componentType":5126,
			"count":8300,
			"type":"VEC3"
		},
		{
			"bufferView":3,
			"componentType":5123,
			"count":11520,
			"type":"SCALAR"
		}
	],
	"bufferViews":[
		{
			"buffer":0,
			"byteLength":66400,
			"byteOffset":0,
			"target":34962
		},
		{
			"buffer":0,
			"byteLength":99600,
			"byteOffset":66400,
			"target":34962
		},
		{
			"buffer":0,
			"byteLength":99600,
			"byteOffset":166000,
			"target":34962
		},
		{
			"buffer":0,
			"byteLength":23040,
			"byteOffset":265600,
			"target":34963
		}
	],
	"buffers":[
		{
			"byteLength":288640,
			"uri":"data:application/octet-stream;base64,"
		}
	]
}
