{
    "accessors" : [
        {
            "bufferView" : 0,
            "componentType" : 5123,
            "count" : 2928,
            "max" : [
                1122
            ],
            "min" : [
                0
            ],
            "type" : "SCALAR"
        },
        {
            "bufferView" : 1,
            "componentType" : 5126,
            "count" : 1123,
            "max" : [
                1.0500001907348633,
                3.5523688793182373,
                0.7999593615531921
            ],
            "min" : [
                -1.0500001907348633,
                -1.4937254766422825e-09,
                -0.7500002384185791
            ],
            "type" : "VEC3"
        },
        {
            "bufferView" : 2,
            "componentType" : 5126,
            "count" : 1123,
            "max" : [
                1.0,
                1.0,
                1.0
            ],
            "min" : [
                -1.0,
                -1.0,
                -1.0
            ],
            "type" : "VEC3"
        },
        {
            "bufferView" : 3,
            "componentType" : 5126,
            "count" : 1123,
            "max" : [
                1.0,
                1.0,
                1.0,
                1.0
            ],
            "min" : [
                -1.0,
                -1.0,
                -1.0,
                -1.0
            ],
            "type" : "VEC4"
        },
        {
            "bufferView" : 4,
            "componentType" : 5126,
            "count" : 1123,
            "max" : [
                0.9914334416389465,
                0.9977472194004804
            ],
            "min" : [
                0.01085042953491211,
                0.011362552642822266
            ],
            "type" : "VEC2"
        }
    ],
    "asset" : {
        "generator" : "Khronos Blender glTF 2.0 exporter",
        "version" : "2.0"
    },
    "bufferViews" : [
        {
            "buffer" : 0,
            "byteLength" : 5856,
            "byteOffset" : 0,
            "target" : 34963
        },
        {
            "buffer" : 0,
            "byteLength" : 13476,
            "byteOffset" : 5856,
            "target" : 34962
        },
        {
            "buffer" : 0,
            "byteLength" : 13476,
            "byteOffset" : 19332,
            "target" : 34962
        },
        {
            "buffer" : 0,
            "byteLength" : 17968,
            "byteOffset" : 32808,
            "target" : 34962
        },
        {
            "buffer" : 0,
            "byteLength" : 8984,
            "byteOffset" : 50776,
            "target" : 34962
        }
    ],
    "buffers" : [
        {
            "byteLength" : 59760,
            "uri" : "Jukebox.bin"
        }
    ],
    "images" : [
        {
            "mimeType" : "image/png",
            "name" : "JukeBoxDiffuse",
            "uri" : "data:image/png;base64,"
        }
    ],
    "materials" : [
        {
            "name" : "Material",
            "pbrMetallicRoughness" : {
                "baseColorFactor" : [
                    0.800000011920929,
                    0.800000011920929,
                    0.800000011920929,
                    1.0
                ],
                "baseColorTexture" : {
                    "index" : 0
                },
                "metallicFactor" : 0.0
            }
        }
    ],
    "meshes" : [
        {
            "name" : "Jukebox",
            "primitives" : [
                {
                    "attributes" : {
                        "NORMAL" : 2,
                        "POSITION" : 1,
                        "TANGENT" : 3,
                        "TEXCOORD_0" : 4
                    },
                    "indices" : 0,
                    "material" : 0
                }
            ]
        }
    ],
    "nodes" : [
        {
            "mesh" : 0,
            "name" : "Jukebox"
        }
    ],
    "samplers" : [
        {}
    ],
    "scene" : 0,
    "scenes" : [
        {
            "name" : "Scene",
            "nodes" : [
                0
            ]
        }
    ],
    "textures" : [
        {
            "sampler" : 0,
            "source" : 0
        }
    ]
}
